<svg xmlns="http://www.w3.org/2000/svg" viewBox="0 0 249.887 57.967">
  <defs>
    <style>
      .cls-1 {
        fill: #fff;
      }

      .cls-2 {
        fill: #00e5ff;
      }

      .cls-3 {
        opacity: 0.97;
      }
    </style>
  </defs>
  <g id="marca-creativeland" transform="translate(-0.008 -0.006)">
    <g id="tipografia" transform="translate(64.59 13.951)">
      <g id="Group_351" data-name="Group 351" transform="translate(0.605)">
        <path id="Path_2489" data-name="Path 2489" class="cls-1" d="M192.209,58.389a1.9,1.9,0,0,1,.453.076.978.978,0,0,1,.416.265l2.456,2.569a10.266,10.266,0,0,1-4.005,3.174,13.981,13.981,0,0,1-5.706,1.058,13.641,13.641,0,0,1-5.4-1.02,11.5,11.5,0,0,1-4.043-2.834,12.937,12.937,0,0,1-2.569-4.308,15.747,15.747,0,0,1-.907-5.4,14.235,14.235,0,0,1,1.02-5.441,12.95,12.95,0,0,1,2.834-4.308,12.279,12.279,0,0,1,4.383-2.8,15.871,15.871,0,0,1,5.63-1.02,13.258,13.258,0,0,1,2.8.265,15.542,15.542,0,0,1,2.456.718,12.414,12.414,0,0,1,2.116,1.1,9,9,0,0,1,1.7,1.436l-2.078,2.8a1.85,1.85,0,0,1-.491.453,1.2,1.2,0,0,1-.756.227,1.109,1.109,0,0,1-.6-.151c-.189-.113-.416-.227-.6-.34s-.453-.3-.718-.453a7.431,7.431,0,0,0-.945-.453,5.425,5.425,0,0,0-1.247-.34,7.686,7.686,0,0,0-1.7-.151,7.259,7.259,0,0,0-3.061.6,6.576,6.576,0,0,0-2.381,1.7,7.481,7.481,0,0,0-1.549,2.683A10.388,10.388,0,0,0,179.135,52a10.752,10.752,0,0,0,.567,3.627,8.406,8.406,0,0,0,1.511,2.683,6.758,6.758,0,0,0,2.229,1.663,6.623,6.623,0,0,0,2.721.567c.567,0,1.058-.038,1.511-.076a6.435,6.435,0,0,0,1.285-.265,7.627,7.627,0,0,0,1.134-.529c.34-.227.718-.491,1.1-.794a2.143,2.143,0,0,1,.491-.3A.707.707,0,0,1,192.209,58.389Z" transform="translate(-172.9 -37.871)"/>
        <path id="Path_2490" data-name="Path 2490" class="cls-1" d="M235.3,77.671V58.778h3.363a3.806,3.806,0,0,1,.718.076,1.171,1.171,0,0,1,.491.227,1.184,1.184,0,0,1,.3.416c.076.189.113.378.189.6l.3,1.776a8.946,8.946,0,0,1,2.343-2.532,4.9,4.9,0,0,1,2.834-.945,3.237,3.237,0,0,1,2.078.6l-.718,4.157a.741.741,0,0,1-.3.529.911.911,0,0,1-.567.151,5.821,5.821,0,0,1-.718-.076,7.665,7.665,0,0,0-1.058-.076,3.928,3.928,0,0,0-3.514,2.381v11.6H235.3Z" transform="translate(-211.721 -50.314)"/>
        <path id="Path_2491" data-name="Path 2491" class="cls-1" d="M276.52,58.7a10.1,10.1,0,0,1,3.439.567,7.385,7.385,0,0,1,2.683,1.7,7.815,7.815,0,0,1,1.738,2.721,10.066,10.066,0,0,1,.642,3.665,7.92,7.92,0,0,1-.038,1.02,2.176,2.176,0,0,1-.189.642,1.072,1.072,0,0,1-.378.34,1.573,1.573,0,0,1-.642.076H272.892a5.486,5.486,0,0,0,1.436,3.439,4.28,4.28,0,0,0,3.023,1.058,5.79,5.79,0,0,0,1.7-.227,8.235,8.235,0,0,0,1.285-.529c.378-.189.718-.378,1.02-.529a2.2,2.2,0,0,1,.982-.227,1.131,1.131,0,0,1,1.02.491l1.625,2.04a7.588,7.588,0,0,1-1.889,1.625,9.455,9.455,0,0,1-2.078.982,11.362,11.362,0,0,1-2.116.491,19.994,19.994,0,0,1-2.04.151,11.112,11.112,0,0,1-3.741-.642,7.685,7.685,0,0,1-3.023-1.927,8.525,8.525,0,0,1-2.04-3.174,12.024,12.024,0,0,1-.756-4.421,10.41,10.41,0,0,1,.642-3.59,9.017,9.017,0,0,1,1.852-2.985,8.661,8.661,0,0,1,2.947-2A8.225,8.225,0,0,1,276.52,58.7Zm.113,3.892a3.4,3.4,0,0,0-2.532.907,4.8,4.8,0,0,0-1.209,2.645h7.066a5.323,5.323,0,0,0-.189-1.323,3.2,3.2,0,0,0-.567-1.134,2.665,2.665,0,0,0-1.02-.794A3.9,3.9,0,0,0,276.633,62.592Z" transform="translate(-231.63 -50.5)"/>
        <path id="Path_2492" data-name="Path 2492" class="cls-1" d="M329.381,77.733a2.544,2.544,0,0,1-1.209-.227,1.788,1.788,0,0,1-.68-.907l-.416-1.02c-.491.416-.945.756-1.36,1.058a8.157,8.157,0,0,1-1.36.756,6.442,6.442,0,0,1-1.511.491,8.414,8.414,0,0,1-1.776.151,7.457,7.457,0,0,1-2.343-.34,5.036,5.036,0,0,1-1.776-.982,4.5,4.5,0,0,1-1.134-1.625,5.92,5.92,0,0,1-.416-2.267,4.77,4.77,0,0,1,.491-2.078,5.005,5.005,0,0,1,1.776-1.927,11.071,11.071,0,0,1,3.4-1.436,21.4,21.4,0,0,1,5.366-.567V66.02a3.49,3.49,0,0,0-.68-2.418,2.5,2.5,0,0,0-1.927-.756,4.794,4.794,0,0,0-1.625.227,7.865,7.865,0,0,0-1.134.491c-.34.189-.642.34-.982.491a2.524,2.524,0,0,1-1.134.227,1.665,1.665,0,0,1-.982-.264,1.963,1.963,0,0,1-.642-.718l-1.02-1.776a11.244,11.244,0,0,1,3.816-2.267,13.308,13.308,0,0,1,4.459-.756,8.222,8.222,0,0,1,3.1.567,6.353,6.353,0,0,1,2.343,1.549,6.851,6.851,0,0,1,1.474,2.343,8.39,8.39,0,0,1,.491,2.985V77.733Zm-6.5-3.439a4.5,4.5,0,0,0,1.927-.378,5.973,5.973,0,0,0,1.663-1.247V70.1a14.376,14.376,0,0,0-2.8.227,6.682,6.682,0,0,0-1.738.567,1.861,1.861,0,0,0-1.134,1.663,1.63,1.63,0,0,0,.529,1.36A2.612,2.612,0,0,0,322.882,74.295Z" transform="translate(-261.554 -50.376)"/>
        <path id="Path_2493" data-name="Path 2493" class="cls-1" d="M369.1,69.637a6.56,6.56,0,0,1-2.381-.378,5.448,5.448,0,0,1-1.738-1.1,4.077,4.077,0,0,1-1.058-1.738,7.124,7.124,0,0,1-.378-2.267V54.371h-1.587a1.089,1.089,0,0,1-.756-.265,1.113,1.113,0,0,1-.3-.831V51.046l3.023-.567,1.1-4.61A1.145,1.145,0,0,1,366.266,45h2.947v5.517h4.572v3.854h-4.572v9.371a1.972,1.972,0,0,0,.3,1.1,1.045,1.045,0,0,0,.907.416,2.23,2.23,0,0,0,.529-.076,1.131,1.131,0,0,0,.378-.151c.113-.038.189-.113.3-.151a.89.89,0,0,1,.3-.076.762.762,0,0,1,.416.113.789.789,0,0,1,.3.378l1.7,2.683a8.843,8.843,0,0,1-2.456,1.247A9.817,9.817,0,0,1,369.1,69.637Z" transform="translate(-289.862 -41.977)"/>
        <path id="Path_2494" data-name="Path 2494" class="cls-1" d="M404.764,40.325a2.738,2.738,0,0,1-.264,1.247,2.88,2.88,0,0,1-.756,1.02,3.674,3.674,0,0,1-1.1.718,3.183,3.183,0,0,1-1.323.265,2.9,2.9,0,0,1-1.285-.265,4.025,4.025,0,0,1-1.058-.718,3.136,3.136,0,0,1-.718-1.02A2.847,2.847,0,0,1,398,40.325a2.9,2.9,0,0,1,.264-1.285,3.4,3.4,0,0,1,1.776-1.776A3.713,3.713,0,0,1,401.325,37a3.067,3.067,0,0,1,1.323.265,3.674,3.674,0,0,1,1.1.718,3.593,3.593,0,0,1,.756,1.058A2.793,2.793,0,0,1,404.764,40.325Zm-.642,5.139V64.357h-5.63V45.464Z" transform="translate(-312.943 -37)"/>
        <path id="Path_2495" data-name="Path 2495" class="cls-1" d="M428.57,78.293h-5.139L416.1,59.4h4.686a1.71,1.71,0,0,1,1.02.265,1.512,1.512,0,0,1,.567.718l2.607,8.464c.189.68.416,1.36.6,2.04.189.642.34,1.323.491,1.965.151-.642.3-1.323.491-1.965s.416-1.323.6-2.04l2.721-8.464a1.623,1.623,0,0,1,.529-.718,1.547,1.547,0,0,1,.945-.265h4.5Z" transform="translate(-324.203 -50.936)"/>
        <path id="Path_2496" data-name="Path 2496" class="cls-1" d="M474.158,58.7a10.1,10.1,0,0,1,3.439.567,7.385,7.385,0,0,1,2.683,1.7,7.814,7.814,0,0,1,1.738,2.721,10.065,10.065,0,0,1,.642,3.665,7.926,7.926,0,0,1-.038,1.02,2.176,2.176,0,0,1-.189.642,1.072,1.072,0,0,1-.378.34,1.574,1.574,0,0,1-.642.076H470.53a5.486,5.486,0,0,0,1.436,3.439,4.218,4.218,0,0,0,3.023,1.058,5.79,5.79,0,0,0,1.7-.227,6.506,6.506,0,0,0,1.247-.529c.378-.189.718-.378,1.02-.529a2.2,2.2,0,0,1,.982-.227,1.131,1.131,0,0,1,1.02.491l1.625,2.04a7.588,7.588,0,0,1-1.889,1.625,9.455,9.455,0,0,1-2.078.982,11.362,11.362,0,0,1-2.116.491,19.994,19.994,0,0,1-2.04.151,11.112,11.112,0,0,1-3.741-.642,7.685,7.685,0,0,1-3.023-1.927,8.525,8.525,0,0,1-2.04-3.174,12.024,12.024,0,0,1-.756-4.421,10.41,10.41,0,0,1,.642-3.59,9.017,9.017,0,0,1,1.852-2.985,9.349,9.349,0,0,1,6.764-2.758Zm.113,3.892a3.4,3.4,0,0,0-2.532.907,4.8,4.8,0,0,0-1.209,2.645H477.6a5.321,5.321,0,0,0-.189-1.323,3.2,3.2,0,0,0-.567-1.134,2.665,2.665,0,0,0-1.02-.794A3.77,3.77,0,0,0,474.271,62.592Z" transform="translate(-354.564 -50.5)"/>
        <path id="Path_2497" data-name="Path 2497" class="cls-1" d="M520.738,39.3V65.788H519V39.3Z" transform="translate(-388.221 -38.431)"/>
        <path id="Path_2498" data-name="Path 2498" class="cls-1" d="M545.521,79.289a.6.6,0,0,1-.68-.491l-.264-2.3c-.491.491-.983.907-1.474,1.323a9.694,9.694,0,0,1-1.549.982,7.845,7.845,0,0,1-1.738.6,8.653,8.653,0,0,1-2.041.227,6.024,6.024,0,0,1-1.814-.265,4.722,4.722,0,0,1-1.549-.831,4.673,4.673,0,0,1-1.1-1.436,4.5,4.5,0,0,1-.416-2.116,3.866,3.866,0,0,1,.642-2.116,5.835,5.835,0,0,1,2.041-1.7,13.783,13.783,0,0,1,3.59-1.171,29.334,29.334,0,0,1,5.29-.491V67.613a6.077,6.077,0,0,0-1.1-3.854,3.832,3.832,0,0,0-3.212-1.36,5.617,5.617,0,0,0-2.229.378,6.592,6.592,0,0,0-1.549.794q-.623.453-1.02.794a1.245,1.245,0,0,1-.68.378.57.57,0,0,1-.529-.34l-.3-.529a10.474,10.474,0,0,1,2.985-2.154A8.29,8.29,0,0,1,540.382,61a6.448,6.448,0,0,1,2.532.453,4.9,4.9,0,0,1,1.814,1.323,6.06,6.06,0,0,1,1.1,2.078,10.355,10.355,0,0,1,.378,2.758V79.4h-.68Zm-7.293-.945a7.494,7.494,0,0,0,1.927-.227,6.941,6.941,0,0,0,1.625-.642,7.171,7.171,0,0,0,1.4-.982c.416-.378.869-.794,1.285-1.209V70.56a34.562,34.562,0,0,0-4.459.378,12.475,12.475,0,0,0-3.061.869,4.8,4.8,0,0,0-1.776,1.285,2.819,2.819,0,0,0-.567,1.738,4.1,4.1,0,0,0,.3,1.587,2.929,2.929,0,0,0,.793,1.1,3.385,3.385,0,0,0,1.134.642A6.2,6.2,0,0,0,538.228,78.344Z" transform="translate(-396.869 -51.931)"/>
        <path id="Path_2499" data-name="Path 2499" class="cls-1" d="M577.8,79.04V60.9h.945a.478.478,0,0,1,.529.453l.151,2.721a10.127,10.127,0,0,1,2.872-2.532,7.067,7.067,0,0,1,3.665-.945,6.478,6.478,0,0,1,2.645.491,4.593,4.593,0,0,1,1.889,1.36,6.5,6.5,0,0,1,1.134,2.154,9.358,9.358,0,0,1,.378,2.834v11.6H590.27V67.477a6.168,6.168,0,0,0-1.171-4.005,4.257,4.257,0,0,0-3.552-1.436,6.374,6.374,0,0,0-3.325.907,9.042,9.042,0,0,0-2.721,2.532v13.6h-1.7Z" transform="translate(-424.803 -51.682)"/>
        <path id="Path_2500" data-name="Path 2500" class="cls-1" d="M635.645,65.788a.485.485,0,0,1-.529-.491l-.189-2.872a9.28,9.28,0,0,1-2.834,2.607,6.959,6.959,0,0,1-3.627.982,6.305,6.305,0,0,1-5.215-2.3C622,62.161,621.4,59.856,621.4,56.757a12.891,12.891,0,0,1,.529-3.7,8.624,8.624,0,0,1,1.549-2.985,7.589,7.589,0,0,1,2.494-2,7.5,7.5,0,0,1,3.4-.718,6.793,6.793,0,0,1,3.174.68,7.292,7.292,0,0,1,2.343,2V39.3h1.738V65.788ZM629,64.617a5.655,5.655,0,0,0,3.25-.945,8.86,8.86,0,0,0,2.607-2.569v-9.56a5.85,5.85,0,0,0-5.215-2.834,6.481,6.481,0,0,0-2.8.567,5.325,5.325,0,0,0-2,1.663,7.5,7.5,0,0,0-1.209,2.532,12.611,12.611,0,0,0-.416,3.287c0,2.683.491,4.686,1.512,5.932A4.967,4.967,0,0,0,629,64.617Z" transform="translate(-451.928 -38.431)"/>
      </g>
    </g>
    <g id="simbolo" transform="translate(0.008 0.006)">
      <g id="Group_354" data-name="Group 354" transform="translate(0.715 0.789)">
        <path id="Path_2518" data-name="Path 2518" class="cls-2" d="M55.935,40.39c-2.947-4.947-7.179-8.875-11.3-12.613-1.511-1.4-3.1-2.832-4.572-4.305-.113-.113-.34-.34-.642-.6A51.68,51.68,0,0,1,35.039,18.3a8.761,8.761,0,0,1,1.889-2.266l.378-.378c2.607-2.795,5.517-5.665,9.333-6.835,2.116-.642,4.95-.038,5.517,1.208a.117.117,0,0,1,.038.076.132.132,0,0,1-.076.038c-.264.076-.68-.227-1.1-.491a4.693,4.693,0,0,0-1.134-.6l-1.247-.34.642,1.133c.151.264.3.491.453.718a6.924,6.924,0,0,1,1.247,2.983c.453,3.285-5.706,9.479-8.086,11.292l-.227.151v.642l4.27,4,.076.038c.378.189.831.189,2.985-1.926,1.058-1.057,2.154-2.228,2.494-2.606,3.439-4.305,9.182-11.48,3.665-18.618a10.035,10.035,0,0,0-6.877-4.192c-5.252-.6-10.807,3.285-14.548,6.269a16.615,16.615,0,0,0-1.814,1.964,15.642,15.642,0,0,1-2.683,2.757A7.611,7.611,0,0,1,28.615,11.5a11.965,11.965,0,0,0-1.058-1.284C24.005,6.553,19.622,1.983,11.914,2.1h-.076l-2.985.831-.076.038a12.75,12.75,0,0,0-6.159,6.5C.086,15.654,4.734,22.112,9.042,26.417c.265.264.491.529.794.831a9.571,9.571,0,0,0,2.834,2.417c.3.151.491.227,2.683-1.737a27.384,27.384,0,0,0,2.343-2.3l.227-.3-.227-.3a21.223,21.223,0,0,0-2.456-2.53c-2.8-2.643-6.273-5.967-5.63-9.4a6.988,6.988,0,0,1,.831-1.964c.189-.3.34-.6.491-.906l1.02-1.02-.945-.189a2.286,2.286,0,0,0-1.965.642,2.4,2.4,0,0,1-.831.491c-.038-.038-.038-.076-.076-.151-.038-.113,0-.3.227-.491.982-.869,4.194-1.1,5.555-.642,4.459,1.511,7.86,5.1,9.447,7.1.227.264.491.491.756.755a3.09,3.09,0,0,1,1.1,1.473c-1.058,1.1-2.078,2.266-3.1,3.437a56.593,56.593,0,0,1-6.65,6.8,50.761,50.761,0,0,0-9.824,9.894l-.038.076c-1.776,2.455-4.421,6.193-3.514,10.763A11.665,11.665,0,0,0,4.7,54.362a11.77,11.77,0,0,0,3.4,2.946,9.74,9.74,0,0,0,4.8,1.208c6.575,0,13.036-6,15.341-8.875l2-2.417A10.849,10.849,0,0,1,32.2,49.377c.189.227.34.453.529.68,3.1,3.814,11.714,10.725,18.78,7.7a11.414,11.414,0,0,0,3.892-2.946,10.363,10.363,0,0,0,2.872-5.891c.6-3.437-1.171-6.382-2.3-8.346ZM21.889,38.577a17.086,17.086,0,0,1,3.439,3.7c-1.927,2.832-7.671,7.855-11.034,9.177-2.078.831-5.177.566-5.97-.906l-.038-.189a.48.48,0,0,1,.227-.038A5.706,5.706,0,0,0,9.5,51a4.924,4.924,0,0,1,.567.378l.151.113h1.4l-.453-.793c-1.511-2.606-2.381-4.343-.68-7.175a19.323,19.323,0,0,1,3.627-4.192,36.613,36.613,0,0,0,2.645-2.757l6.386-6.458,7.1-7.024,6.2,6.118c1.134,1.133,2.343,2.266,3.514,3.361a77.675,77.675,0,0,1,7.179,7.364c.34.415.68.793,1.02,1.208,1.247,1.435,2.456,2.757,2.834,4.872a4.336,4.336,0,0,1-.869,3.474,8.311,8.311,0,0,0-.567.982l-.982,1.473L50,51.492A3.641,3.641,0,0,0,50.909,51c.378-.227,1.058-.642,1.285-.566l.038.038.038.113a4.8,4.8,0,0,1-3.439,1.435h-.076c-4.232,0-8.955-4.721-10.5-6.269-.189-.189-.453-.415-.718-.642-.869-.755-2.3-2.039-2.229-2.946l6.8-6.8L37.23,30.5l-6.99,6.873-.151.038-6.877-6.949-4.723,4.721,2.116,2.19A13.6,13.6,0,0,0,21.889,38.577Z" transform="translate(-1.9 -2.095)"/>
      </g>
      <g id="Group_366" data-name="Group 366">
        <g id="Group_355" data-name="Group 355" transform="translate(40.523 6.987)">
          <path id="Path_2519" data-name="Path 2519" d="M107.836,35.993a.568.568,0,0,1-.416-.151.548.548,0,0,1,0-.794q.794-.85,1.587-1.587c3.816-3.816,6.8-6.877,6.726-9.636-.038-1.436-.907-2.872-2.645-4.345a.562.562,0,0,1,.756-.831c1.965,1.738,2.985,3.4,3.023,5.177.113,3.287-2.872,6.31-7.028,10.5-.529.529-1.02,1.058-1.587,1.587C108.138,35.918,107.987,35.993,107.836,35.993Z" transform="translate(-107.25 -18.497)"/>
        </g>
        <g id="Group_356" data-name="Group 356" transform="translate(16.377 21.312)">
          <path id="Path_2520" data-name="Path 2520" d="M68.119,69.694a.568.568,0,0,1-.416-.151L55.99,57.829,44.314,69.505a.561.561,0,0,1-.794-.794L55.612,56.62a.548.548,0,0,1,.794,0L68.535,68.712a.548.548,0,0,1,0,.794A.607.607,0,0,1,68.119,69.694Z" transform="translate(-43.35 -56.45)"/>
        </g>
        <g id="Group_357" data-name="Group 357" transform="translate(33.48 6.859)">
          <path id="Path_2521" data-name="Path 2521" d="M101.266,40.883a.485.485,0,0,1-.378-.151c-7.1-6.5-12.054-12.129-12.129-12.167a.571.571,0,0,1-.038-.718c.3-.378,7.293-9.182,13.339-9.673a5.51,5.51,0,0,1,4.27,1.474.562.562,0,0,1-.756.831,4.3,4.3,0,0,0-3.4-1.171c-4.912.378-10.845,7.179-12.243,8.88,1.209,1.323,5.668,6.2,11.714,11.752a.549.549,0,0,1,.038.794A.6.6,0,0,1,101.266,40.883Z" transform="translate(-88.611 -18.158)"/>
        </g>
        <g id="Group_358" data-name="Group 358" transform="translate(21.441 28.338)">
          <path id="Path_2522" data-name="Path 2522" d="M64.364,83.193a.568.568,0,0,1-.416-.151L56.92,76.014a.561.561,0,0,1,.794-.794l6.65,6.613L70.9,75.3a.561.561,0,0,1,.794.794l-6.953,6.953A.485.485,0,0,1,64.364,83.193Z" transform="translate(-56.75 -75.05)"/>
        </g>
        <g id="Group_359" data-name="Group 359" transform="translate(7.965 6.927)">
          <path id="Path_2523" data-name="Path 2523" d="M30.122,35.893a.792.792,0,0,1-.416-.151q-.794-.85-1.587-1.587c-4.157-4.194-7.179-7.217-7.028-10.5.076-1.776,1.058-3.439,3.023-5.177a.562.562,0,1,1,.756.831c-1.738,1.511-2.607,2.947-2.645,4.345-.113,2.8,2.91,5.819,6.726,9.636l1.587,1.587a.548.548,0,0,1,0,.794A.516.516,0,0,1,30.122,35.893Z" transform="translate(-21.086 -18.337)"/>
        </g>
        <g id="Group_360" data-name="Group 360" transform="translate(7.929 33.387)">
          <path id="Path_2524" data-name="Path 2524" d="M24.4,106.04a.541.541,0,0,1-.378-.151c-1.965-1.738-2.985-3.4-3.023-5.177-.113-3.287,2.872-6.31,7.028-10.5.529-.529,1.02-1.058,1.587-1.587a.561.561,0,0,1,.794.794q-.794.85-1.587,1.587c-3.816,3.816-6.8,6.877-6.726,9.636.038,1.436.907,2.872,2.645,4.345a.548.548,0,0,1,.038.794A.393.393,0,0,1,24.4,106.04Z" transform="translate(-20.992 -88.45)"/>
        </g>
        <g id="Group_361" data-name="Group 361" transform="translate(6.495 6.746)">
          <path id="Path_2525" data-name="Path 2525" d="M22.564,40.7a.607.607,0,0,1-.416-.189.548.548,0,0,1,.038-.794c6.046-5.555,10.467-10.5,11.638-11.827-1.4-1.663-7.368-8.5-12.281-8.88a4.169,4.169,0,0,0-3.4,1.171.562.562,0,0,1-.756-.831,5.462,5.462,0,0,1,4.27-1.474c6.046.491,13.036,9.3,13.339,9.673a.624.624,0,0,1,0,.718A150.51,150.51,0,0,1,22.942,40.546.541.541,0,0,1,22.564,40.7Z" transform="translate(-17.197 -17.858)"/>
        </g>
        <g id="Group_362" data-name="Group 362" transform="translate(33.603 33.387)">
          <path id="Path_2526" data-name="Path 2526" d="M102.9,106.077a2.155,2.155,0,0,1-.491-.038c-5.857-.453-12.583-8.729-13.3-9.6a.584.584,0,0,1-.038-.794l.076-.076c.151-.151,1.1-1.058,6.953-6.953a.561.561,0,0,1,.794.794c-3.325,3.363-5.063,5.1-6.008,6.008l-.642.642c1.436,1.738,7.368,8.464,12.205,8.842a4.169,4.169,0,0,0,3.4-1.171.562.562,0,0,1,.756.831A5.047,5.047,0,0,1,102.9,106.077Z" transform="translate(-88.937 -88.45)"/>
        </g>
        <g id="Group_363" data-name="Group 363" transform="translate(40.599 33.425)">
          <path id="Path_2527" data-name="Path 2527" d="M113.666,106.064a.607.607,0,0,1-.416-.189.583.583,0,0,1,.038-.794c1.738-1.511,2.607-2.947,2.645-4.345.113-2.8-2.91-5.819-6.726-9.636l-1.587-1.587a.561.561,0,0,1,.794-.794q.794.85,1.587,1.587c4.157,4.194,7.179,7.217,7.028,10.5-.076,1.776-1.058,3.439-3.023,5.177C113.93,105.988,113.779,106.064,113.666,106.064Z" transform="translate(-107.45 -88.55)"/>
        </g>
        <g id="Group_364" data-name="Group 364" transform="translate(6.629 33.387)">
          <path id="Path_2528" data-name="Path 2528" d="M21.348,106.077a4.939,4.939,0,0,1-3.627-1.511.561.561,0,1,1,.794-.794,3.74,3.74,0,0,0,2.91,1.171c4.119-.076,9.447-5.63,11.714-8.011a10.785,10.785,0,0,1,.945-.945l-6.613-6.575a.561.561,0,0,1,.794-.794l7.028,7.028a.632.632,0,0,1,.151.567.511.511,0,0,1-.34.34,16.318,16.318,0,0,0-1.171,1.171c-2.569,2.683-7.9,8.275-12.507,8.351Zm13.641-9.484Z" transform="translate(-17.55 -88.45)"/>
        </g>
        <g id="Group_365" data-name="Group 365" class="cls-3">
          <path id="Path_2529" data-name="Path 2529" d="M11.719,57.973a11.221,11.221,0,0,1-8.086-3.588A11.093,11.093,0,0,1,.08,45.548c.529-7.666,8.578-14.691,10.845-16.5C8.658,27.194.609,20.245.043,12.617a11.233,11.233,0,0,1,3.59-8.988A11.154,11.154,0,0,1,12.663.041c7.671.566,14.586,8.61,16.4,10.914C30.914,8.689,38.094.683,45.8.192a10.854,10.854,0,0,1,8.691,3.474,11.077,11.077,0,0,1,3.514,8.724c-.567,7.666-8.691,14.8-10.958,16.617C49.278,30.9,57.4,38.184,57.856,45.926a10.636,10.636,0,0,1-3.4,8.459,10.93,10.93,0,0,1-8.729,3.474c-7.708-.529-14.812-8.61-16.664-10.914-1.814,2.266-8.842,10.385-16.55,10.952A5.64,5.64,0,0,1,11.719,57.973Zm.076-56.836A10.256,10.256,0,0,0,4.426,4.422,10.208,10.208,0,0,0,1.138,12.5C1.781,20.736,12.1,28.478,12.21,28.554a.566.566,0,0,1,0,.906c-.113.076-10.429,7.931-11,16.163a10.031,10.031,0,0,0,3.212,7.968,10,10,0,0,0,8.011,3.21c8.275-.6,16.1-10.99,16.173-11.1a.539.539,0,0,1,.453-.227h0a.539.539,0,0,1,.453.227c.076.113,8.049,10.461,16.286,11.027a9.9,9.9,0,0,0,7.86-3.172,9.575,9.575,0,0,0,3.061-7.591C56.231,37.693,45.915,29.5,45.8,29.422a.566.566,0,0,1,0-.906c.113-.076,10.467-8.044,11.034-16.277a9.891,9.891,0,0,0-3.174-7.855A9.867,9.867,0,0,0,45.84,1.25C37.6,1.816,29.592,12.088,29.516,12.2a.539.539,0,0,1-.453.227h0a.539.539,0,0,1-.453-.227c-.076-.113-7.822-10.423-16.059-11.027A4.82,4.82,0,0,0,11.794,1.136Z" transform="translate(-0.008 -0.006)"/>
        </g>
      </g>
    </g>
  </g>
</svg>
